<svg xmlns="http://www.w3.org/2000/svg" version="1.1" xmlns:xlink="http://www.w3.org/1999/xlink" xmlns:svgjs="http://svgjs.dev/svgjs" width="1920" height="1080" preserveAspectRatio="none" viewBox="0 0 1920 1080"><g mask="url(&quot;#SvgjsMask1770&quot;)" fill="none"><rect width="1920" height="1080" x="0" y="0" fill="#0e2a47"></rect><path d="M1920 0L1123.23 0L1920 113.82z" fill="rgba(255, 255, 255, .1)"></path><path d="M1123.23 0L1920 113.82L1920 447.73L887.62 0z" fill="rgba(255, 255, 255, .075)"></path><path d="M887.6199999999999 0L1920 447.73L1920 812.48L681.56 0z" fill="rgba(255, 255, 255, .05)"></path><path d="M681.56 0L1920 812.48L1920 833.79L224.06999999999994 0z" fill="rgba(255, 255, 255, .025)"></path><path d="M0 1080L858.33 1080L0 947.25z" fill="rgba(0, 0, 0, .1)"></path><path d="M0 947.25L858.33 1080L905.77 1080L0 525.1600000000001z" fill="rgba(0, 0, 0, .075)"></path><path d="M0 525.1600000000001L905.77 1080L1049.01 1080L0 420.6300000000001z" fill="rgba(0, 0, 0, .05)"></path><path d="M0 420.6300000000001L1049.01 1080L1052.82 1080L0 348.9600000000001z" fill="rgba(0, 0, 0, .025)"></path></g><defs><mask id="SvgjsMask1770"><rect width="1920" height="1080" fill="#ffffff"></rect></mask></defs></svg>